<?xml version="1.0" standalone="no"?>
<!DOCTYPE svg PUBLIC "-//W3C//DTD SVG 20010904//EN"
 "http://www.w3.org/TR/2001/REC-SVG-20010904/DTD/svg10.dtd">
<svg version="1.0" xmlns="http://www.w3.org/2000/svg"
 width="3600.000000pt" height="3600.000000pt" viewBox="0 0 3600.000000 3600.000000"
 preserveAspectRatio="xMidYMid meet">
<metadata>
Created by potrace 1.14, written by Peter Selinger 2001-2017
</metadata>
<g transform="translate(0.000000,3600.000000) scale(0.100000,-0.100000)"
fill="#000000" stroke="none">
<path d="M10955 32669 c-115 -11 -157 -23 -675 -196 -256 -85 -478 -159 -495
-163 -75 -20 -337 -114 -405 -146 -243 -115 -434 -353 -491 -614 -18 -85 -18
-306 0 -385 12 -51 497 -1531 521 -1590 4 -11 146 -438 315 -950 169 -511 311
-939 315 -950 5 -11 59 -171 119 -355 380 -1153 447 -1350 460 -1350 7 0 30
13 50 29 20 15 100 70 179 121 83 54 142 99 142 108 0 8 -16 63 -35 121 -86
257 -571 1719 -610 1841 -24 74 -51 155 -59 180 -34 97 -116 342 -421 1265
-174 528 -321 969 -325 980 -5 11 -34 99 -66 195 -31 96 -77 236 -102 310 -43
126 -46 142 -46 240 0 100 2 108 36 180 48 100 113 166 208 213 60 29 870 306
985 337 17 4 82 26 145 48 202 69 223 75 318 80 99 5 160 -6 222 -41 108 -60
168 -126 214 -236 24 -56 91 -257 533 -1591 203 -614 252 -766 273 -840 7 -25
16 -54 20 -65 4 -11 13 -40 20 -65 7 -25 21 -72 30 -105 10 -33 26 -87 35
-120 9 -33 21 -71 25 -85 4 -14 13 -45 20 -70 7 -25 16 -56 21 -70 7 -22 54
-182 80 -280 6 -19 14 -50 20 -67 5 -18 13 -48 18 -65 6 -18 14 -49 20 -68 30
-111 53 -188 60 -210 5 -14 14 -45 21 -70 7 -25 16 -56 20 -70 4 -14 13 -43
19 -65 6 -22 25 -87 42 -145 17 -58 35 -121 41 -140 5 -19 13 -48 18 -65 8
-28 20 -69 36 -125 6 -22 76 -263 91 -312 6 -22 1 -22 51 2 22 11 48 20 57 20
8 0 23 4 33 9 24 13 72 33 175 72 49 19 92 41 97 49 4 9 3 32 -5 55 -6 22 -18
60 -25 85 -7 25 -17 59 -22 75 -22 75 -111 385 -123 432 -8 28 -28 98 -46 155
-35 116 -34 111 -82 288 -9 30 -64 219 -122 420 -58 201 -115 394 -125 430
-56 200 -81 288 -89 310 -5 14 -14 43 -20 65 -6 22 -48 166 -92 320 -93 319
-101 381 -60 468 31 67 87 125 146 153 44 20 889 271 1050 311 161 40 304 -19
369 -152 21 -44 138 -429 209 -690 3 -11 24 -83 47 -160 23 -77 48 -162 55
-190 42 -151 56 -199 85 -293 17 -57 37 -127 45 -155 7 -29 32 -115 55 -192
23 -77 48 -165 57 -195 41 -152 44 -160 91 -320 22 -74 43 -146 46 -160 16
-56 28 -97 36 -125 5 -16 13 -46 18 -65 6 -19 24 -82 41 -140 17 -58 36 -123
42 -145 16 -56 31 -99 39 -108 3 -4 26 -3 51 2 24 5 82 16 129 25 47 9 104 21
128 26 23 6 55 10 70 10 15 0 34 5 42 10 19 12 14 32 -175 680 -59 201 -113
388 -120 415 -7 28 -32 113 -55 190 -23 77 -48 165 -57 195 -8 30 -19 70 -24
88 -5 17 -13 47 -18 65 -5 17 -23 79 -40 135 -18 57 -38 127 -46 155 -7 29
-32 115 -55 192 -23 77 -48 163 -55 190 -36 128 -57 200 -94 330 -22 77 -45
154 -49 170 -5 17 -15 50 -22 75 -14 49 -16 56 -54 148 -49 119 -153 248 -259
321 -56 38 -172 92 -242 112 -33 9 -98 14 -195 13 -137 0 -152 -2 -270 -37
-69 -20 -143 -42 -165 -48 -22 -6 -51 -15 -65 -19 -14 -4 -43 -13 -65 -19 -22
-6 -78 -22 -125 -36 -47 -14 -103 -31 -125 -37 -22 -5 -51 -14 -65 -18 -14 -4
-43 -13 -65 -19 -22 -6 -69 -20 -105 -30 -191 -57 -246 -75 -254 -83 -6 -4
-16 -8 -23 -8 -14 0 -147 -83 -181 -113 -14 -13 -26 -17 -31 -11 -5 5 -87 243
-181 529 -224 677 -232 699 -318 820 -143 203 -354 333 -602 370 -55 8 -108
14 -117 14 -10 -1 -54 -5 -98 -10z"/>
<path d="M19200 31113 c-63 -24 -124 -48 -135 -53 -11 -4 -65 -25 -120 -45
-55 -20 -109 -40 -120 -45 -11 -4 -47 -18 -80 -30 -33 -12 -69 -26 -80 -30
-11 -4 -76 -29 -145 -55 -69 -25 -134 -50 -145 -55 -11 -5 -76 -29 -145 -55
-69 -26 -134 -50 -145 -55 -11 -5 -76 -29 -145 -55 -224 -84 -334 -126 -370
-140 -40 -15 -138 -52 -320 -120 -69 -26 -134 -50 -145 -55 -11 -5 -76 -29
-145 -55 -69 -26 -134 -50 -145 -55 -11 -4 -45 -17 -75 -28 -30 -11 -122 -46
-205 -77 -82 -32 -204 -77 -270 -102 -66 -25 -129 -49 -140 -53 -11 -5 -87
-34 -170 -65 -254 -96 -274 -105 -313 -139 -124 -109 -80 -328 76 -374 42 -13
163 -31 470 -72 42 -6 109 -15 147 -21 419 -59 547 -78 552 -82 4 -5 -19 -189
-47 -372 -5 -33 -14 -96 -20 -140 -6 -44 -13 -93 -16 -110 -3 -16 -9 -64 -14
-105 -5 -41 -18 -133 -29 -205 -12 -77 -16 -134 -11 -139 5 -5 50 -4 110 3 55
6 154 11 219 11 l118 0 12 88 c7 48 16 112 21 142 5 30 21 141 35 245 14 105
30 217 35 250 5 33 14 101 20 150 6 50 15 104 20 120 12 39 60 373 60 418 l0
34 -197 27 c-363 49 -473 67 -473 75 0 3 57 28 128 54 70 27 136 52 147 57 21
9 224 86 435 165 224 84 386 145 718 271 81 31 201 76 267 101 66 25 129 49
140 53 11 4 47 18 80 30 33 12 71 26 84 31 13 5 78 30 145 55 66 25 130 49
141 54 27 11 250 95 296 111 36 12 38 11 104 -37 37 -27 89 -65 116 -84 169
-123 336 -246 346 -256 6 -6 56 -43 110 -82 54 -40 157 -116 230 -169 72 -54
214 -159 315 -233 100 -73 185 -137 188 -140 3 -3 30 -23 60 -45 47 -34 130
-95 455 -335 407 -300 400 -294 265 -272 -36 6 -105 16 -155 22 -49 7 -112 16
-138 21 -26 5 -66 9 -87 9 -33 0 -41 -4 -45 -22 -35 -148 -77 -382 -81 -458
-3 -52 -11 -108 -19 -125 -7 -16 -16 -52 -19 -80 -7 -65 -28 -221 -65 -470
-11 -77 -21 -160 -23 -184 -3 -49 -9 -45 117 -80 67 -18 177 -52 238 -72 32
-11 62 -17 66 -14 5 2 12 26 15 52 4 27 11 80 17 118 11 80 24 168 39 275 28
201 61 432 71 493 12 75 13 76 106 58 26 -6 86 -15 133 -21 121 -15 291 -39
575 -81 33 -5 110 -12 170 -15 101 -6 115 -5 152 15 96 48 142 147 118 251
-13 58 -50 104 -127 161 -40 29 -75 56 -78 59 -3 3 -21 17 -40 30 -19 14 -123
89 -230 169 -238 176 -512 379 -745 551 -27 20 -138 102 -245 181 -107 80
-233 173 -280 207 -47 35 -96 72 -110 82 -14 10 -92 68 -175 129 -82 61 -224
166 -315 233 -91 67 -196 145 -235 173 -38 28 -160 118 -270 200 -110 82 -227
168 -260 193 -137 101 -193 106 -375 35z"/>
<path d="M25235 28264 c-11 -2 -153 -11 -315 -19 -483 -26 -655 -35 -850 -46
-199 -10 -425 -22 -750 -39 -310 -15 -412 -26 -449 -45 -90 -46 -145 -156
-122 -245 23 -88 51 -114 293 -269 125 -80 227 -152 228 -160 0 -8 -71 -125
-159 -260 -159 -247 -185 -290 -179 -296 18 -17 383 -195 392 -192 7 3 52 67
101 144 48 76 104 163 124 193 20 30 44 71 54 90 11 19 36 58 56 85 73 98 89
121 139 202 62 100 93 175 78 189 -6 5 -48 33 -93 63 -46 29 -81 57 -78 61 4
7 196 21 570 40 110 6 274 15 365 20 223 13 426 24 475 24 l40 1 43 -110 c24
-60 48 -119 52 -130 4 -11 25 -63 45 -115 20 -52 41 -104 45 -115 5 -11 47
-121 95 -245 48 -124 103 -265 122 -315 19 -49 39 -99 43 -110 4 -11 12 -31
17 -45 55 -133 64 -160 59 -169 -4 -6 -40 12 -84 40 l-78 49 -44 -13 c-41 -12
-49 -19 -84 -82 -21 -39 -53 -99 -71 -135 -18 -36 -47 -87 -64 -115 -17 -27
-31 -57 -31 -67 0 -10 -65 -119 -145 -242 -80 -124 -145 -231 -145 -238 0 -8
15 -26 33 -40 17 -14 92 -73 166 -132 74 -59 139 -105 144 -103 5 1 89 125
186 275 97 149 179 272 183 272 3 0 96 -58 205 -128 109 -70 211 -133 226
-140 45 -19 131 -15 183 10 53 24 99 81 115 141 20 76 23 67 -251 772 -4 11
-12 31 -18 45 -5 14 -27 68 -47 120 -20 52 -41 104 -45 115 -5 11 -63 162
-130 335 -67 173 -126 326 -132 340 -14 33 -11 24 -129 330 -57 146 -113 281
-125 301 -49 79 -154 121 -259 103z"/>
<path d="M8437 27644 c-326 -54 -566 -290 -622 -609 -24 -139 -17 -250 26
-384 72 -227 245 -423 454 -514 160 -69 364 -88 510 -46 126 36 125 36 170
-23 22 -28 79 -92 126 -142 47 -50 101 -109 119 -131 19 -22 68 -76 110 -120
41 -45 142 -154 224 -243 82 -89 153 -162 157 -162 5 0 53 37 107 83 54 45
129 105 165 132 37 28 67 54 67 58 0 17 -61 95 -142 182 -47 50 -104 113 -128
140 -23 28 -72 82 -109 120 -36 39 -104 113 -151 165 -47 52 -92 102 -100 110
-33 32 -150 168 -150 173 0 4 13 35 29 69 180 395 -11 886 -419 1076 -85 39
-155 58 -265 71 -49 6 -92 10 -95 10 -3 -1 -40 -7 -83 -15z m255 -476 c104
-48 183 -146 214 -265 18 -69 18 -102 -2 -169 -31 -109 -128 -197 -230 -210
-185 -23 -342 81 -403 266 -25 75 -26 127 -6 194 28 94 89 164 171 196 71 29
179 24 256 -12z"/>
<path d="M17115 26940 c-121 -5 -278 -13 -350 -19 -371 -30 -383 -31 -635 -66
-232 -32 -299 -42 -422 -65 -63 -11 -118 -21 -245 -44 -46 -8 -113 -22 -150
-31 -38 -9 -90 -21 -118 -27 -27 -6 -60 -14 -73 -19 -13 -5 -34 -9 -47 -9 -13
0 -34 -4 -47 -9 -13 -5 -48 -14 -78 -21 -30 -6 -75 -17 -100 -25 -25 -7 -63
-17 -85 -23 -22 -6 -71 -20 -110 -32 -38 -11 -86 -25 -105 -30 -176 -49 -235
-68 -517 -164 -136 -47 -352 -128 -440 -166 -13 -6 -33 -14 -45 -19 -157 -61
-229 -92 -316 -133 -57 -26 -105 -48 -107 -48 -8 0 -199 -91 -305 -145 -239
-121 -398 -204 -446 -232 -27 -17 -70 -41 -95 -55 -68 -38 -359 -211 -402
-239 -143 -92 -444 -293 -467 -312 -15 -12 -54 -40 -86 -62 -154 -107 -583
-441 -701 -546 -32 -29 -72 -64 -88 -78 -207 -179 -276 -244 -535 -501 -285
-284 -440 -451 -663 -717 -12 -15 -36 -43 -53 -62 -17 -20 -83 -103 -148 -186
-64 -82 -122 -157 -129 -165 -38 -48 -138 -185 -237 -325 -104 -146 -350 -521
-350 -532 0 -2 -13 -24 -29 -47 -25 -36 -73 -118 -252 -433 -11 -18 -28 -49
-40 -69 -29 -52 -289 -571 -289 -578 0 -5 -25 -63 -82 -186 -62 -134 -98 -219
-148 -350 -29 -74 -58 -148 -65 -165 -36 -81 -215 -606 -255 -745 -7 -25 -16
-56 -20 -70 -4 -14 -18 -61 -30 -105 -13 -44 -27 -85 -32 -92 -7 -9 -157 -13
-601 -16 -639 -3 -625 -2 -724 -58 -91 -51 -170 -150 -209 -259 -19 -54 -19
-107 -22 -2060 -3 -1424 0 -2034 8 -2105 12 -109 26 -226 41 -350 9 -69 35
-235 69 -437 6 -32 15 -85 20 -118 19 -111 31 -185 36 -205 2 -11 18 -83 34
-160 17 -77 35 -159 40 -182 10 -44 23 -99 39 -175 13 -59 61 -247 71 -278 4
-14 13 -44 19 -67 24 -92 32 -122 66 -248 20 -71 44 -155 54 -185 10 -30 38
-116 61 -190 23 -74 53 -157 65 -185 21 -43 77 -245 92 -327 3 -16 9 -28 14
-28 5 0 9 -8 9 -18 0 -10 4 -22 8 -27 5 -6 15 -30 22 -55 8 -25 22 -60 32 -78
10 -18 18 -37 18 -42 0 -9 35 -92 64 -150 11 -24 49 -43 126 -61 40 -9 220
-56 265 -69 17 -5 41 -11 55 -15 61 -15 106 -28 125 -35 20 -8 31 -11 195 -55
115 -31 167 -45 200 -55 14 -4 43 -13 65 -19 22 -6 96 -27 165 -46 69 -20 143
-40 165 -47 22 -6 54 -15 70 -19 317 -91 363 -110 458 -185 108 -86 196 -249
201 -372 1 -29 -6 -95 -17 -145 -28 -136 -38 -197 -67 -381 -5 -37 -13 -72
-15 -77 -3 -4 -6 -25 -7 -46 -1 -21 -6 -41 -12 -45 -6 -4 -8 -9 -5 -12 7 -8
79 64 79 78 0 7 43 52 95 102 206 193 382 364 741 722 206 204 378 372 382
372 4 0 69 -62 146 -139 105 -105 137 -143 134 -159 -3 -20 -1099 -1127 -1215
-1227 -25 -22 -104 -96 -174 -164 -71 -69 -136 -129 -146 -135 -10 -5 -36 -28
-58 -50 -22 -23 -76 -68 -119 -101 -44 -33 -102 -82 -130 -108 -28 -27 -63
-56 -78 -65 -16 -9 -28 -20 -28 -25 0 -13 -59 -66 -92 -83 -35 -18 -40 -8 90
-184 47 -63 111 -149 141 -190 48 -65 176 -225 191 -240 3 -3 23 -27 45 -55
21 -27 42 -52 45 -55 3 -3 23 -27 45 -55 64 -79 78 -97 115 -138 l35 -39 28
26 c15 14 27 29 27 33 0 20 95 126 147 164 56 42 76 53 143 82 121 51 259 50
450 -2 19 -5 85 -23 145 -40 61 -17 128 -36 150 -42 22 -6 51 -15 65 -19 14
-4 43 -13 65 -19 22 -6 81 -22 130 -36 50 -14 108 -30 130 -36 22 -6 51 -15
65 -19 14 -4 45 -13 70 -20 25 -7 54 -16 65 -20 11 -5 67 -20 125 -35 58 -15
116 -30 130 -35 14 -4 45 -13 70 -20 25 -7 59 -17 75 -22 17 -4 95 -27 175
-49 80 -22 177 -49 215 -60 39 -11 95 -26 125 -35 139 -38 231 -69 299 -101
125 -59 233 -179 288 -321 23 -59 26 -81 26 -187 0 -133 3 -118 -121 -555 -39
-135 -73 -263 -77 -285 -4 -22 -10 -44 -13 -50 -3 -5 -7 -23 -9 -39 -2 -17 -8
-35 -13 -40 -6 -6 -10 -22 -10 -36 0 -14 -5 -31 -10 -36 -6 -6 -12 -26 -13
-45 -1 -19 -6 -39 -10 -45 -3 -6 1 -18 11 -27 30 -26 213 -117 236 -117 16 0
57 34 132 111 140 143 134 136 134 148 0 6 21 20 46 31 35 16 165 140 540 513
272 271 501 494 510 495 16 4 297 -274 292 -289 -2 -4 -335 -341 -740 -747
-406 -407 -738 -744 -738 -748 0 -5 -16 -26 -35 -48 -19 -21 -35 -41 -35 -45
0 -12 228 -135 465 -251 278 -136 453 -220 460 -220 3 0 27 -9 53 -21 26 -12
56 -25 67 -29 11 -4 36 -15 55 -23 19 -8 64 -27 100 -42 36 -15 85 -36 110
-48 47 -21 254 -98 330 -123 25 -8 54 -19 65 -24 55 -24 302 -107 445 -150 58
-17 123 -37 145 -44 22 -7 60 -19 85 -26 25 -7 70 -21 100 -30 30 -10 141 -39
245 -64 105 -26 207 -51 228 -56 20 -6 56 -15 80 -21 23 -6 49 -15 58 -19 22
-11 203 -50 233 -50 23 0 24 2 15 37 -6 21 -14 47 -19 58 -12 29 -30 110 -30
139 0 14 -14 81 -31 148 -17 68 -33 134 -36 148 -2 14 -8 34 -13 45 -5 11 -11
34 -15 50 -12 62 -29 125 -81 305 -9 30 -20 72 -25 93 -16 67 -28 112 -37 147
-6 19 -22 78 -37 130 -30 107 -41 151 -50 195 -4 17 -10 39 -15 50 -5 11 -11
34 -15 50 -12 58 -37 155 -86 325 -6 19 -15 52 -20 73 -5 20 -13 54 -18 75
-10 37 -15 56 -46 167 -31 110 -41 148 -64 240 -5 22 -15 58 -21 80 -21 74
-22 81 -8 92 7 5 33 16 58 22 25 7 61 17 80 22 19 6 52 15 73 20 20 5 56 14
80 20 23 6 55 11 71 12 27 2 29 -1 47 -68 10 -38 31 -113 45 -165 28 -104 40
-149 49 -195 4 -16 10 -39 15 -50 5 -11 11 -31 13 -45 3 -14 13 -52 22 -85 28
-97 36 -129 41 -155 3 -14 9 -34 14 -45 5 -11 11 -33 15 -50 12 -58 37 -155
86 -325 12 -40 24 -87 38 -145 5 -22 19 -76 31 -120 54 -195 72 -262 77 -285
2 -14 8 -34 12 -45 19 -48 31 -93 31 -118 0 -14 5 -29 10 -32 6 -3 10 -18 10
-31 0 -14 11 -60 25 -102 43 -130 45 -138 45 -160 0 -11 4 -23 9 -26 5 -3 11
-23 13 -43 6 -43 49 -163 72 -198 14 -21 22 -22 117 -23 78 -1 109 2 127 14
17 11 21 19 13 28 -6 7 -8 16 -4 20 4 4 9 40 10 79 1 40 9 117 16 172 8 55 15
151 16 214 1 63 6 121 10 130 5 9 11 54 15 101 7 102 21 274 35 430 6 63 17
194 26 290 34 394 40 435 74 520 60 148 181 265 338 328 65 26 75 27 243 26
96 0 220 -6 275 -13 55 -6 210 -21 345 -32 135 -12 286 -25 335 -30 50 -5 151
-14 225 -19 129 -9 222 -17 480 -39 63 -6 171 -15 240 -21 189 -16 299 -29
349 -42 216 -54 375 -219 430 -451 13 -58 14 -162 2 -276 -6 -47 -15 -144 -21
-216 -12 -145 -24 -293 -40 -465 -11 -121 -33 -383 -50 -585 -6 -66 -12 -173
-13 -237 -2 -65 -6 -121 -10 -124 -4 -4 -2 -13 4 -20 7 -8 7 -14 -1 -19 -8 -5
-8 -11 1 -21 9 -11 9 -17 -1 -29 -11 -13 -8 -15 19 -15 18 0 53 5 79 10 59 13
120 25 197 39 211 39 350 67 495 102 316 77 415 101 455 114 22 7 58 17 80 23
203 58 502 153 650 207 55 20 125 45 155 55 67 22 217 77 248 90 12 6 32 14
45 19 12 5 38 16 57 24 19 9 60 25 90 37 30 11 70 27 88 35 17 8 48 22 67 30
19 8 50 21 68 29 17 8 56 24 85 36 42 18 51 26 47 41 -4 11 -2 19 4 19 6 0 11
4 11 8 0 9 -67 87 -180 207 -41 44 -116 125 -165 180 -50 55 -97 107 -105 115
-8 8 -58 62 -110 120 -52 58 -102 112 -110 120 -8 8 -58 62 -110 120 -52 58
-120 132 -151 165 -30 33 -78 85 -105 115 -27 30 -79 86 -115 125 -37 38 -90
97 -118 130 l-52 60 63 60 c110 105 229 210 242 213 13 3 81 -66 246 -248 58
-63 107 -117 110 -120 3 -3 52 -57 110 -120 58 -63 107 -117 110 -120 3 -3 52
-57 110 -120 58 -63 128 -140 156 -170 28 -30 73 -80 100 -110 27 -30 76 -84
110 -120 33 -36 105 -114 159 -175 54 -60 120 -132 146 -160 27 -27 57 -61 68
-75 l20 -25 88 45 c48 25 130 69 181 97 52 29 97 53 102 53 4 0 13 7 20 15 9
11 7 21 -11 47 -12 18 -27 38 -33 43 -13 11 -96 133 -96 140 0 8 -111 168
-135 195 -19 22 -101 143 -130 193 -5 9 -64 101 -130 204 -181 283 -199 328
-199 493 1 176 47 291 166 411 31 31 175 136 240 174 25 15 169 107 455 292
139 90 255 163 258 163 3 0 54 33 113 73 122 81 151 100 562 363 401 257 422
267 590 268 198 2 353 -74 473 -232 64 -84 257 -390 257 -406 0 -8 5 -18 11
-21 6 -4 44 -60 86 -124 116 -180 178 -271 183 -271 10 0 325 322 431 440 56
63 135 151 174 195 40 44 106 121 148 171 86 105 89 118 55 244 -51 185 -60
219 -79 290 -12 41 -25 91 -29 110 -4 19 -22 80 -39 135 -18 55 -37 118 -43
140 -6 22 -14 51 -18 65 -4 14 -15 50 -23 80 -9 30 -34 120 -57 200 -22 80
-45 163 -51 185 -6 22 -16 54 -21 70 -5 17 -12 75 -15 130 -10 180 40 308 172
440 96 97 154 127 345 182 47 13 117 33 155 44 39 11 102 28 140 39 39 10 126
35 195 55 122 35 179 51 345 94 44 12 96 25 115 31 19 5 94 23 165 40 72 17
139 34 150 39 30 13 173 57 231 71 l51 13 66 136 c61 126 99 210 164 366 14
33 33 78 43 100 10 22 30 69 45 105 15 36 33 79 40 95 7 17 22 55 33 85 11 30
41 111 67 180 26 69 56 150 67 180 11 30 30 82 43 115 12 33 48 141 80 240 31
99 65 205 75 235 54 169 105 353 180 647 10 39 20 75 23 80 3 4 15 55 27 113
12 58 26 123 31 145 5 22 14 63 19 90 10 48 23 112 40 185 13 59 47 231 59
305 21 125 31 184 41 243 25 146 41 258 55 382 9 74 18 142 21 150 3 8 5 213
4 455 -1 477 -4 513 -57 622 -33 66 -117 154 -176 184 -23 12 -45 27 -49 33
-4 6 -8 666 -8 1466 0 1184 -3 1464 -14 1505 -47 177 -187 307 -362 335 -33 6
-247 10 -476 10 -388 0 -417 1 -422 18 -3 9 -12 42 -20 72 -52 192 -126 427
-221 699 -48 136 -233 605 -278 701 -37 80 -66 145 -113 250 -38 87 -267 538
-314 620 -40 68 -67 116 -108 190 -221 398 -602 959 -927 1364 -27 35 -63 80
-80 102 -26 34 -90 110 -105 124 -3 3 -58 67 -123 142 -64 76 -127 148 -140
160 -12 13 -89 95 -172 182 -165 176 -453 458 -600 588 -424 377 -847 704
-1290 996 -183 121 -392 252 -401 252 -2 0 -23 11 -45 26 -22 14 -56 34 -75
45 -35 20 -52 29 -164 94 -139 81 -550 289 -710 360 -58 26 -143 65 -190 87
-274 128 -879 350 -1235 452 -88 26 -189 55 -225 66 -83 25 -245 65 -520 129
-98 22 -206 45 -300 61 -36 6 -85 15 -110 20 -25 5 -74 14 -110 20 -36 7 -87
16 -115 21 -27 5 -142 20 -255 34 -113 14 -236 30 -275 35 -38 5 -137 14 -220
20 -82 6 -199 15 -260 20 -154 13 -836 19 -1100 10z m-6622 -8184 c166 -43
277 -158 322 -331 29 -109 13 -261 -37 -357 -54 -103 -170 -191 -288 -217 -60
-14 -213 -10 -271 6 -161 45 -278 182 -310 361 -10 60 -10 88 1 155 31 196
147 334 325 383 58 16 195 16 258 0z m-2823 -236 c108 -9 153 -15 290 -41 92
-18 311 -85 380 -117 36 -17 90 -42 120 -56 160 -74 380 -242 508 -389 135
-154 224 -298 315 -507 36 -82 91 -272 107 -365 6 -38 15 -90 20 -115 32 -154
36 -552 9 -735 -32 -211 -43 -266 -78 -375 -17 -52 -31 -98 -31 -102 0 -4 -25
-59 -55 -123 -30 -65 -55 -119 -55 -121 0 -2 -32 -52 -71 -111 -89 -136 -200
-264 -309 -357 -85 -73 -182 -146 -194 -146 -3 0 -31 -16 -62 -36 -31 -20 -82
-48 -113 -61 -31 -14 -85 -39 -119 -54 -71 -33 -280 -97 -357 -110 -154 -26
-189 -31 -280 -40 -157 -16 -1592 -24 -1610 -9 -13 11 -15 265 -15 1974 0
1078 3 1971 6 1984 l6 22 737 0 c405 0 788 -5 851 -10z m4502 -792 c2 -604 6
-803 15 -803 6 0 44 36 84 80 40 44 111 123 159 175 47 52 178 196 290 320
113 124 228 250 256 280 28 30 98 107 154 170 57 63 147 162 200 220 53 58
116 127 141 155 41 46 130 144 172 187 16 17 44 18 487 18 270 0 470 -4 470
-9 0 -5 -12 -22 -27 -39 -16 -16 -64 -69 -108 -118 -44 -48 -89 -98 -100 -110
-11 -12 -38 -41 -59 -65 -22 -24 -60 -67 -85 -94 -155 -169 -242 -265 -347
-380 -65 -72 -159 -175 -209 -230 -90 -100 -173 -191 -251 -275 -22 -25 -92
-101 -154 -170 -62 -69 -155 -170 -205 -225 -173 -189 -225 -249 -225 -260 0
-7 23 -38 52 -71 48 -55 217 -243 228 -254 3 -3 104 -115 225 -250 121 -135
224 -250 230 -256 11 -12 147 -162 239 -264 66 -72 93 -102 216 -240 47 -52
108 -120 136 -150 57 -61 193 -212 329 -364 49 -56 98 -110 108 -121 9 -10 16
-24 14 -30 -3 -7 -163 -11 -492 -13 l-487 -2 -42 42 c-44 46 -171 187 -227
253 -19 22 -41 47 -49 55 -8 8 -87 96 -175 195 -88 99 -162 182 -165 185 -3 3
-41 46 -85 95 -44 50 -122 137 -174 195 -52 58 -108 121 -125 140 -44 50 -184
208 -227 255 -20 22 -64 72 -98 110 -34 39 -67 70 -74 70 -9 0 -13 -177 -14
-785 -3 -724 -4 -786 -20 -797 -24 -18 -723 -19 -741 -1 -9 9 -12 465 -12
1988 0 1087 3 1980 7 1983 3 4 177 7 385 7 l378 0 2 -802z m12685 702 c18 -52
60 -174 92 -270 33 -96 90 -260 126 -365 36 -104 88 -257 115 -340 28 -82 55
-159 60 -170 5 -11 23 -63 41 -115 49 -146 130 -383 214 -625 42 -121 79 -229
82 -240 2 -11 9 -29 13 -40 5 -11 16 -40 24 -65 8 -25 60 -178 116 -340 56
-162 114 -333 130 -380 16 -47 70 -204 120 -350 179 -520 192 -561 186 -575
-5 -13 -60 -15 -374 -15 -280 0 -372 3 -383 13 -9 6 -73 186 -144 399 -108
324 -132 387 -149 392 -39 11 -1512 7 -1542 -4 -28 -10 -34 -24 -116 -263
-151 -441 -178 -512 -195 -524 -23 -17 -733 -19 -750 -2 -8 8 -1 42 28 128 22
64 44 125 49 136 11 26 92 253 120 335 12 36 25 74 30 85 10 24 53 143 74 205
30 89 115 328 126 355 5 11 27 72 49 135 21 63 58 167 81 230 89 249 112 316
117 338 3 12 9 25 14 28 5 3 9 14 9 25 0 10 4 27 10 37 5 9 25 64 45 122 20
58 45 128 55 155 27 70 119 331 136 385 8 25 19 54 24 65 5 11 16 40 24 65 8
25 31 90 51 145 20 55 45 125 55 155 10 30 35 100 55 155 55 151 89 248 135
380 22 66 45 129 50 140 4 11 13 34 18 50 6 17 18 51 28 78 l17 47 450 -2 451
-3 33 -95z m2443 -1450 c5 -1649 3 -1572 52 -1643 27 -38 127 -87 177 -87 30
0 43 -5 51 -19 16 -30 14 -656 -2 -668 -19 -15 -120 -33 -232 -42 -214 -18
-424 36 -551 140 -50 41 -144 147 -145 162 0 5 -8 21 -19 35 -26 37 -59 136
-76 227 -13 66 -15 320 -15 1761 l0 1684 378 -2 377 -3 5 -1545z m1440 53 c0
-1233 2 -1510 14 -1568 17 -88 29 -118 58 -145 33 -31 123 -70 161 -70 18 0
38 -5 45 -12 9 -9 12 -99 12 -345 l0 -332 -37 -10 c-179 -47 -432 -41 -578 14
-159 59 -277 167 -349 318 -24 51 -47 106 -51 122 -3 17 -11 53 -17 80 -11 50
-24 3404 -13 3432 3 10 87 13 380 13 l375 0 0 -1497z m-12629 417 c628 -112
1057 -539 1171 -1165 32 -174 31 -462 0 -628 -53 -272 -153 -490 -317 -687
-64 -76 -78 -90 -175 -171 -155 -128 -390 -240 -590 -280 -30 -6 -73 -14 -95
-19 -127 -28 -463 -20 -647 14 -425 79 -802 374 -990 775 -22 47 -44 100 -48
116 -5 17 -18 62 -29 100 -77 255 -81 643 -10 910 68 253 189 467 362 639 212
210 459 337 772 395 148 27 443 28 596 1z m3569 6 c91 -18 127 -30 205 -66
123 -56 233 -161 296 -280 15 -28 30 -54 33 -57 5 -5 73 45 121 90 43 40 225
152 315 194 131 61 124 58 230 87 130 35 213 46 360 46 273 0 459 -68 612
-223 64 -65 88 -104 141 -233 60 -146 90 -309 106 -577 6 -101 11 -543 11
-1027 0 -829 0 -850 -19 -860 -13 -6 -148 -10 -371 -10 -223 0 -358 4 -371 10
-19 10 -19 31 -19 930 0 935 -1 951 -37 1057 -45 128 -207 199 -396 175 -185
-24 -347 -109 -514 -269 l-53 -51 -2 -923 -3 -924 -375 0 -375 0 -6 915 c-4
652 -9 933 -17 977 -26 131 -78 204 -181 251 -50 23 -68 26 -166 26 -124 -1
-202 -18 -305 -67 -84 -39 -200 -121 -271 -189 -48 -46 -57 -60 -62 -98 -2
-25 -5 -441 -6 -924 -1 -688 -4 -882 -14 -888 -19 -12 -715 -10 -738 2 -19 11
-19 37 -19 1429 l0 1419 23 6 c29 8 521 8 541 0 10 -4 26 -41 41 -93 59 -199
68 -226 75 -234 4 -4 31 13 61 39 80 69 241 171 349 221 121 56 131 60 155 66
11 3 56 15 99 27 44 11 104 25 135 29 96 14 330 12 411 -3z m-8930 -72 c7 -16
9 -531 8 -1425 -3 -1231 -5 -1401 -18 -1409 -16 -11 -708 -14 -734 -4 -15 6
-16 141 -16 1428 0 783 3 1426 7 1429 3 4 172 7 375 7 l368 0 10 -26z m8379
-2948 c28 -84 61 -143 108 -192 60 -63 109 -94 189 -122 58 -21 75 -22 525
-22 499 0 489 -1 598 54 59 30 140 111 174 174 58 106 57 92 57 998 0 506 4
843 10 858 8 23 55 56 79 56 7 0 11 -302 13 -887 4 -970 -1 -899 60 -1023 45
-90 161 -181 279 -219 24 -7 180 -11 499 -11 446 0 466 1 523 21 l59 21 67
-21 c64 -20 87 -21 526 -21 488 0 499 1 594 50 68 34 137 99 177 166 27 46 83
194 181 484 14 41 30 81 35 88 8 9 114 12 468 12 354 0 460 -3 468 -12 5 -7
46 -122 91 -255 44 -134 92 -266 107 -295 50 -98 165 -190 285 -227 50 -16
949 -15 998 0 75 24 146 65 201 115 l56 53 45 -30 c104 -70 254 -128 419 -161
87 -17 434 -17 515 1 233 51 282 72 369 159 49 49 59 55 74 44 91 -63 273
-154 352 -174 127 -33 197 -40 393 -43 114 -1 209 -3 211 -4 2 0 -1 -22 -6
-48 -5 -27 -13 -73 -18 -103 -22 -134 -40 -244 -60 -360 -8 -50 -24 -122 -66
-310 -23 -105 -33 -152 -44 -205 -15 -74 -26 -123 -44 -190 -10 -33 -28 -103
-42 -155 -14 -52 -32 -117 -39 -145 -8 -27 -23 -86 -35 -130 -11 -44 -39 -136
-61 -205 -22 -69 -60 -190 -85 -270 -62 -196 -70 -215 -86 -218 -7 -1 -28 23
-48 55 -47 79 -208 243 -305 310 -196 137 -410 203 -651 203 -178 0 -292 -21
-439 -80 -283 -113 -516 -341 -633 -620 -36 -85 -47 -123 -82 -277 -15 -63
-12 -277 5 -368 22 -120 28 -141 75 -255 57 -140 142 -264 262 -383 54 -54 98
-100 98 -102 0 -3 -18 -9 -100 -31 -244 -66 -465 -218 -605 -414 -64 -92 -130
-231 -151 -319 -8 -36 -19 -82 -25 -102 -13 -50 -11 -270 2 -343 11 -60 79
-317 109 -416 4 -14 13 -43 19 -65 6 -22 27 -96 46 -165 20 -69 40 -143 46
-165 6 -22 15 -51 19 -65 4 -14 13 -43 19 -65 18 -68 61 -218 73 -256 8 -29 8
-41 -3 -56 -15 -21 -123 -144 -201 -227 -26 -28 -48 -54 -48 -58 0 -5 -7 -8
-15 -8 -9 0 -57 64 -112 148 -98 150 -188 267 -239 312 -92 80 -138 112 -214
153 -350 187 -734 165 -1096 -64 -53 -33 -80 -45 -85 -37 -4 6 -5 17 -2 24 3
8 0 69 -6 136 -23 244 -107 458 -247 634 -72 91 -191 202 -264 248 -187 118
-444 197 -641 196 -79 -1 -243 -25 -329 -50 -81 -23 -263 -108 -320 -149 -47
-35 -137 -107 -159 -129 -27 -26 -134 -153 -157 -187 -41 -60 -114 -212 -138
-290 -45 -142 -51 -183 -50 -365 0 -160 3 -184 28 -275 15 -55 31 -109 36
-120 18 -47 105 -213 128 -245 130 -179 257 -289 432 -376 65 -33 119 -63 119
-69 1 -5 -20 -23 -45 -39 -45 -29 -164 -114 -174 -126 -3 -3 -18 -16 -34 -28
-54 -42 -164 -181 -211 -269 -63 -116 -114 -272 -116 -356 -1 -23 -4 -55 -8
-72 l-7 -30 -50 50 c-51 53 -148 156 -224 241 -65 72 -127 117 -195 145 -51
20 -76 24 -170 24 -169 -1 -206 -22 -489 -284 -91 -84 -166 -156 -166 -160 0
-4 -9 -16 -19 -28 -31 -33 -57 -93 -75 -172 -32 -139 12 -290 116 -401 13 -14
97 -106 188 -205 91 -99 167 -182 170 -185 3 -3 28 -30 55 -60 116 -128 254
-279 311 -340 117 -126 139 -152 139 -168 0 -15 -15 -22 -230 -98 -55 -19
-109 -39 -120 -44 -31 -14 -342 -115 -430 -140 -16 -5 -46 -13 -65 -18 -19 -6
-82 -24 -140 -41 -151 -45 -153 -45 -402 -106 -125 -30 -240 -55 -254 -55
l-27 0 6 98 c4 53 12 149 17 212 6 63 15 167 20 230 5 63 16 191 25 285 42
466 43 542 6 705 -20 90 -26 109 -66 196 -14 30 -25 57 -25 60 0 19 -149 210
-203 261 -66 61 -227 173 -250 173 -7 0 -17 4 -22 9 -20 17 -143 59 -210 71
-38 7 -83 16 -99 21 -16 5 -59 9 -95 9 -88 0 -103 10 -73 47 114 145 217 354
242 493 6 36 16 84 21 107 14 63 10 248 -7 333 -8 41 -19 93 -23 115 -18 91
-97 257 -176 370 -211 302 -567 485 -944 485 -103 0 -168 -8 -311 -40 -96 -21
-249 -95 -360 -176 -164 -118 -319 -305 -380 -459 -13 -33 -26 -64 -30 -70
-12 -17 -37 -106 -50 -175 -6 -36 -16 -84 -21 -107 -30 -138 15 -426 92 -587
16 -33 29 -63 29 -68 0 -5 11 -25 25 -45 13 -20 22 -40 20 -43 -3 -4 -82 -5
-177 -3 -149 4 -186 2 -271 -16 -411 -87 -724 -406 -803 -819 -10 -51 -20 -89
-24 -85 -6 7 -14 35 -40 131 -6 20 -19 71 -31 112 -11 41 -25 91 -29 110 -5
19 -14 53 -20 75 -11 40 -22 81 -39 153 -72 298 -146 411 -318 482 -62 26 -84
30 -165 30 -88 0 -108 -4 -278 -52 -19 -5 -53 -14 -75 -19 -22 -6 -56 -14 -75
-19 -19 -5 -48 -12 -65 -16 -16 -3 -71 -26 -121 -49 -125 -60 -197 -142 -239
-273 -24 -75 -16 -218 20 -342 45 -159 49 -173 74 -277 5 -21 16 -63 25 -93
52 -180 69 -243 81 -305 4 -16 10 -39 15 -50 5 -11 11 -31 13 -45 3 -14 13
-52 22 -85 25 -88 56 -206 62 -235 2 -14 8 -34 13 -45 5 -11 11 -33 15 -50 9
-44 20 -88 50 -195 15 -52 31 -111 37 -130 5 -19 14 -53 19 -75 6 -22 15 -58
20 -80 22 -85 23 -105 3 -105 -10 0 -31 4 -48 10 -95 30 -155 49 -191 59 -22
6 -76 22 -120 35 -44 13 -111 34 -150 45 -38 12 -79 26 -90 31 -19 8 -63 24
-255 91 -104 37 -172 62 -270 101 -70 28 -89 36 -172 72 -18 8 -85 35 -148 61
-199 81 -472 214 -468 227 2 5 263 269 580 586 526 527 579 583 607 642 44 94
57 180 42 271 -21 127 -51 170 -280 400 -175 175 -216 211 -271 238 -120 57
-266 57 -390 -1 -57 -27 -101 -67 -370 -334 -168 -167 -311 -304 -317 -304 -7
0 -8 14 -2 43 4 23 8 93 9 155 0 120 -30 277 -72 372 -11 25 -26 59 -34 76
-30 69 -136 213 -205 280 -41 40 -112 96 -159 126 -82 52 -263 131 -332 145
-18 3 -48 13 -66 20 l-34 14 39 30 c67 53 171 169 229 257 67 101 145 279 163
372 7 36 17 84 22 107 18 82 11 271 -15 393 -27 126 -29 134 -75 233 -17 37
-31 70 -31 73 0 2 -28 46 -62 97 -132 197 -315 347 -528 433 -257 103 -554
113 -807 28 -298 -101 -573 -354 -691 -637 -53 -127 -56 -138 -92 -342 -18
-108 4 -315 52 -474 10 -35 17 -65 15 -67 -2 -2 -37 5 -78 16 -154 42 -295 59
-414 50 -110 -8 -223 -30 -280 -55 -74 -33 -115 -46 -129 -43 -19 4 -136 148
-136 168 0 8 400 414 889 901 803 801 891 893 920 950 73 150 65 317 -22 449
-48 71 -355 377 -432 430 -110 75 -227 96 -350 65 -116 -29 -137 -46 -431
-338 l-282 -279 -24 34 c-14 18 -47 65 -73 103 -96 137 -278 284 -418 337 -82
31 -178 64 -227 79 -25 7 -47 14 -49 15 -2 2 39 43 90 91 100 96 229 276 263
368 9 28 21 59 26 70 94 215 94 577 0 810 -67 166 -159 306 -279 423 -80 77
-264 200 -346 232 -33 12 -75 29 -93 37 -121 53 -446 71 -609 32 -254 -60
-425 -159 -606 -349 -66 -69 -108 -107 -111 -99 -32 102 -86 300 -96 354 -10
53 -25 119 -80 365 -26 114 -37 167 -49 240 -69 401 -90 533 -85 541 3 5 305
9 722 9 786 0 824 2 1158 59 33 6 89 20 125 31 35 11 82 25 104 32 167 47 396
147 502 219 23 16 44 29 48 29 3 0 36 20 73 44 200 133 427 359 552 550 23 36
46 66 51 66 12 0 12 -7 10 -278 -3 -295 9 -403 54 -498 40 -82 115 -164 185
-199 110 -56 99 -55 599 -55 450 0 467 1 525 21 66 24 91 38 147 82 l37 29 48
-37 c48 -37 97 -62 165 -83 56 -19 939 -16 1001 2 155 48 267 163 311 322 14
48 17 106 17 292 0 194 2 232 14 232 8 0 24 -12 36 -27 12 -16 43 -50 68 -78
48 -51 297 -330 456 -509 133 -152 184 -192 294 -228 51 -17 102 -18 635 -18
567 0 582 0 641 21 34 12 84 37 112 55 60 40 67 41 125 13 132 -65 389 -128
607 -150 211 -22 569 6 762 60 155 43 219 66 350 129 176 83 337 198 484 345
94 94 131 125 137 115 5 -7 9 -61 9 -119 0 -119 18 -188 71 -271 54 -83 148
-151 260 -187 24 -7 179 -11 496 -11 417 0 465 2 515 18 146 48 218 120 299
297 12 25 14 186 17 890 1 650 5 866 14 883 7 13 28 32 48 42 l35 18 5 -886
c5 -693 9 -896 19 -926z m-11539 -1835 c112 -18 258 -94 359 -187 80 -74 173
-234 194 -334 24 -114 17 -311 -13 -385 -4 -11 -15 -39 -24 -63 -38 -100 -142
-227 -251 -304 -57 -41 -178 -98 -207 -98 -11 0 -28 -4 -38 -10 -46 -25 -294
-11 -375 20 -11 5 -39 15 -63 24 -58 22 -177 104 -229 158 -116 121 -193 311
-193 475 0 318 193 586 492 683 72 23 205 41 258 34 19 -3 60 -9 90 -13z
m19800 -751 c190 -20 332 -87 457 -218 89 -92 151 -210 179 -342 17 -78 18
-217 3 -274 -23 -89 -33 -121 -39 -131 -4 -5 -13 -26 -20 -45 -33 -83 -139
-207 -230 -270 -65 -44 -137 -80 -161 -80 -10 0 -20 -4 -23 -9 -6 -9 -14 -11
-135 -31 -106 -17 -273 7 -376 54 -254 117 -414 365 -415 644 -1 350 243 632
605 700 28 5 52 10 55 10 3 1 48 -3 100 -8z m-16409 -2654 c118 -37 222 -101
305 -188 52 -53 134 -167 134 -185 0 -6 7 -25 16 -43 64 -127 70 -358 13 -496
-69 -169 -136 -256 -267 -348 -105 -73 -182 -100 -332 -117 -249 -28 -498 87
-644 296 -106 150 -150 344 -119 515 16 91 24 113 74 215 93 188 281 327 499
369 49 9 275 -3 321 -18z m12004 -446 c141 -16 262 -67 370 -154 94 -76 191
-222 224 -336 7 -25 17 -58 22 -74 5 -16 9 -74 9 -130 -1 -283 -134 -498 -392
-635 -197 -105 -423 -103 -639 5 -163 81 -300 248 -349 424 -7 25 -16 58 -21
74 -5 16 -9 66 -9 112 0 369 269 676 625 714 39 4 72 8 75 8 3 1 41 -2 85 -8z
m-4855 -945 c19 -4 53 -15 75 -25 22 -9 51 -21 65 -25 46 -14 165 -102 220
-162 89 -97 125 -168 181 -359 14 -47 11 -171 -6 -253 -60 -286 -261 -488
-558 -560 -99 -24 -271 -8 -387 36 -90 34 -166 83 -238 153 -145 141 -212 302
-212 507 0 119 14 193 51 265 5 10 9 23 9 29 0 23 95 157 147 207 92 90 213
156 348 190 42 11 245 9 305 -3z"/>
<path d="M6847 17783 c-4 -3 -7 -563 -7 -1243 0 -1094 2 -1239 15 -1250 12
-10 93 -12 368 -7 354 5 437 13 579 51 29 8 64 18 78 21 27 7 43 13 102 39 20
9 38 16 41 16 3 0 38 19 79 42 191 108 325 253 420 455 42 89 98 267 98 312 0
14 5 42 10 61 14 47 13 435 0 513 -10 53 -26 125 -59 252 -12 48 -78 180 -125
253 -114 176 -295 319 -502 398 -106 41 -178 59 -308 79 -74 11 -186 15 -441
15 -188 0 -345 -3 -348 -7z m758 -458 c161 -29 275 -80 363 -160 141 -128 198
-261 223 -514 11 -113 11 -150 -3 -268 -9 -76 -23 -160 -32 -188 -75 -226
-222 -362 -461 -425 -89 -23 -262 -43 -340 -38 l-60 3 -3 790 c-1 435 0 796 3
803 6 17 208 16 310 -3z"/>
<path d="M24355 17616 c-7 -22 -11 -35 -62 -176 -24 -69 -57 -163 -73 -210
-16 -47 -44 -130 -64 -185 -88 -249 -149 -426 -172 -495 -14 -41 -29 -84 -34
-95 -10 -21 -80 -224 -110 -315 -9 -30 -15 -61 -13 -67 7 -19 1059 -19 1066 0
3 9 -84 282 -165 517 -3 8 -82 244 -175 524 -93 280 -174 511 -181 514 -7 2
-14 -3 -17 -12z"/>
<path d="M15715 16724 c-297 -46 -502 -233 -576 -524 -31 -120 -31 -331 0
-445 28 -104 55 -166 107 -241 90 -129 223 -222 377 -263 82 -23 295 -30 353
-12 16 5 49 15 74 22 164 47 318 182 398 349 103 213 102 529 0 735 -89 179
-242 307 -427 356 -74 19 -245 32 -306 23z m243 -480 c45 -27 81 -75 101 -136
16 -48 16 -217 0 -265 -16 -52 -56 -105 -98 -133 -50 -33 -199 -41 -257 -14
-55 25 -100 76 -120 136 -21 63 -23 215 -5 281 23 82 97 149 176 160 64 10
159 -4 203 -29z"/>
<path d="M27550 26149 c-148 -39 -227 -74 -325 -144 -168 -119 -303 -332 -334
-526 -22 -134 -5 -334 35 -411 8 -15 14 -33 14 -40 0 -7 -59 -67 -131 -133
-73 -66 -171 -156 -219 -200 -48 -44 -132 -120 -188 -170 -55 -49 -101 -97
-101 -105 0 -8 25 -42 56 -75 207 -219 242 -255 249 -255 4 0 39 30 78 68 39
37 91 84 116 106 25 21 74 66 110 100 36 33 84 77 106 96 23 19 80 71 129 115
122 112 117 109 157 87 18 -10 71 -29 118 -43 117 -33 308 -33 420 0 318 94
538 334 604 655 52 254 -43 532 -241 703 -144 125 -306 184 -503 182 -63 0
-131 -5 -150 -10z m283 -463 c57 -25 118 -85 144 -144 35 -81 33 -193 -6 -276
-38 -79 -108 -148 -188 -188 -57 -28 -73 -31 -151 -31 -104 0 -144 15 -213 80
-176 165 -76 486 177 567 60 19 182 15 237 -8z"/>
<path d="M7860 25789 c-36 -4 -103 -12 -150 -18 -47 -5 -121 -15 -165 -21
-189 -26 -388 -52 -537 -70 -43 -6 -115 -15 -160 -21 -46 -5 -114 -14 -153
-19 -154 -19 -404 -51 -475 -60 -93 -13 -190 -26 -300 -40 -258 -33 -281 -41
-343 -109 -62 -69 -63 -78 -27 -526 14 -176 38 -491 51 -650 5 -71 14 -186 19
-255 6 -69 15 -183 20 -255 6 -71 14 -186 20 -255 5 -69 14 -190 20 -270 17
-231 34 -274 125 -329 64 -39 141 -42 210 -10 46 22 68 46 269 292 68 83 81
95 95 85 8 -7 22 -18 31 -25 8 -7 212 -173 454 -369 363 -295 440 -354 451
-343 7 8 45 65 84 128 40 63 90 138 112 167 21 29 39 57 39 63 0 13 -664 549
-794 641 -204 145 -232 164 -306 219 -41 31 -93 70 -114 88 -61 51 -63 50
-161 -72 -52 -66 -65 -78 -72 -72 -6 6 -22 196 -63 732 -16 198 -28 355 -41
511 -7 78 -10 148 -6 156 3 10 26 18 64 22 106 13 197 24 283 36 47 6 117 15
155 20 104 13 216 27 350 45 166 22 257 34 345 45 229 30 228 30 168 -41 -24
-29 -58 -69 -75 -89 -45 -51 -41 -81 9 -91 36 -8 519 -397 536 -432 7 -15 63
-67 125 -117 62 -50 130 -105 151 -123 250 -204 344 -280 357 -288 13 -7 30 6
79 59 34 37 100 106 147 154 49 50 83 94 81 103 -1 8 -201 176 -443 373 -242
197 -441 364 -443 372 -1 8 10 29 25 45 16 17 46 53 68 80 22 28 45 56 52 63
29 30 101 129 118 162 29 55 23 152 -12 209 -53 85 -139 117 -273 100z"/>
<path d="M31080 25763 c-174 -30 -279 -74 -560 -238 -102 -59 -205 -119 -230
-133 -25 -13 -83 -47 -130 -75 -47 -27 -103 -60 -125 -73 -22 -12 -166 -95
-320 -184 -154 -89 -296 -171 -315 -182 -19 -11 -384 -222 -810 -468 -426
-246 -791 -457 -810 -468 -19 -10 -86 -49 -148 -86 -62 -36 -115 -66 -117 -66
-1 0 -32 -17 -66 -38 -35 -22 -84 -50 -109 -64 -188 -107 -247 -141 -259 -153
-12 -12 -4 -25 50 -92 35 -43 91 -114 124 -158 73 -98 80 -105 97 -105 8 0 47
20 87 45 40 25 74 45 76 45 2 0 241 138 532 306 290 169 548 318 573 332 25
13 82 47 128 73 45 27 84 49 86 49 2 0 33 17 67 38 35 22 84 50 109 64 25 14
169 97 320 185 151 88 295 171 320 185 25 14 86 49 135 78 50 29 108 62 130
75 39 22 138 79 200 115 17 9 53 31 81 47 27 17 70 41 95 55 24 14 170 99 324
188 310 181 375 215 444 236 55 17 219 19 258 3 144 -59 202 -106 280 -226 29
-46 53 -86 53 -89 0 -3 8 -18 19 -32 10 -15 29 -47 43 -72 14 -25 34 -61 45
-80 11 -19 37 -64 58 -100 58 -100 70 -121 102 -176 17 -27 41 -70 55 -95 14
-24 34 -60 45 -79 11 -19 37 -64 58 -100 21 -36 45 -78 55 -95 10 -16 34 -59
55 -95 21 -36 47 -81 58 -100 51 -88 80 -161 94 -237 14 -74 14 -89 -1 -153
-38 -170 -112 -258 -315 -375 -126 -72 -258 -148 -286 -165 -69 -40 -164 -95
-215 -123 -30 -16 -66 -38 -80 -47 -14 -9 -45 -28 -70 -42 -25 -14 -63 -36
-85 -48 -22 -13 -51 -30 -65 -37 -14 -8 -38 -22 -55 -32 -36 -22 -95 -55 -155
-89 -25 -13 -49 -28 -55 -32 -5 -4 -27 -17 -47 -29 -21 -12 -53 -29 -70 -40
-18 -10 -62 -35 -98 -56 -36 -21 -81 -47 -100 -58 -19 -11 -55 -31 -80 -45
-25 -13 -49 -28 -55 -32 -5 -4 -26 -17 -45 -28 -19 -11 -80 -45 -135 -77 -55
-31 -118 -68 -140 -80 -33 -19 -192 -111 -375 -217 -19 -12 -55 -32 -80 -46
-25 -13 -97 -55 -160 -92 -119 -70 -591 -343 -670 -388 -157 -88 -337 -195
-349 -207 -14 -14 -9 -29 131 -333 l38 -84 42 25 c24 14 60 34 81 46 63 35
100 57 153 88 27 17 70 41 95 55 24 14 95 55 158 92 62 36 115 66 116 66 1 0
44 25 94 55 51 30 93 55 95 55 2 0 33 17 67 38 35 22 84 50 109 64 70 40 366
211 515 298 50 28 108 62 130 75 22 12 101 57 175 100 74 43 155 89 179 103
25 13 68 38 95 55 55 32 76 44 176 102 36 21 79 45 95 55 50 29 227 131 275
158 25 13 57 33 72 43 14 11 29 19 32 19 4 0 47 25 97 55 50 30 92 55 95 55 2
0 34 18 70 40 36 22 68 40 70 40 3 0 23 11 45 26 39 24 60 37 158 92 25 14 68
38 95 55 28 16 76 43 106 60 356 193 530 424 581 771 10 70 10 109 1 181 -24
191 -58 277 -217 550 -31 55 -73 127 -93 160 -19 33 -42 74 -52 90 -9 17 -38
65 -64 108 -25 43 -46 80 -46 82 0 2 -14 28 -31 57 -36 61 -239 411 -277 478
-56 99 -109 169 -187 245 -74 73 -220 175 -249 175 -7 0 -16 4 -21 9 -14 12
-168 57 -241 70 -58 11 -183 13 -234 4z"/>
<path d="M5015 22794 c-11 -2 -45 -9 -75 -16 -184 -38 -395 -197 -481 -363
-139 -266 -124 -536 44 -794 148 -227 416 -371 692 -371 189 0 364 63 509 183
l48 40 162 -82 c381 -196 609 -311 611 -309 1 2 9 21 19 43 10 22 54 113 99
202 44 89 79 164 76 167 -6 6 -155 84 -459 238 -151 77 -280 144 -286 149 -8
6 -12 48 -12 112 -1 107 -10 160 -44 262 -84 246 -305 447 -573 521 -50 14
-292 27 -330 18z m281 -480 c32 -15 82 -51 110 -79 70 -69 97 -130 102 -227 4
-67 1 -82 -23 -130 -36 -71 -79 -115 -145 -146 -46 -22 -69 -26 -145 -27 -83
0 -96 3 -160 34 -81 40 -156 112 -187 179 -13 30 -23 75 -26 123 -4 67 -1 84
20 131 28 61 74 109 133 140 60 32 92 38 181 34 62 -3 93 -10 140 -32z"/>
</g>
</svg>
